# xmcd
#
# Track frame offsets: 
#        150
#        13098
#        25047
#        41782
#        47045
#        51907
#        56473
#        64247
#        69391
#        77784
#        82581
#        91438
#        96247
#        105375
#        112936
#        117426
#        121252
#
# Disc length: 1691 seconds
#
# Revision: 0
# Processed by: cddbd v1.5.2PL0 Copyright (c) Steve Scherf et al.
# Submitted via: ExactAudioCopy v0.99pb5
#
DISCID=d6069911
DTITLE=Kasey Chambers - Little Bird (Deluxe edition) CD2
DYEAR=2010
DGENRE=Country
TTITLE0=Millionaires (feat. Beccy Cole)
TTITLE1=Old School
TTITLE2=Hold On
TTITLE3=Kasey Chambers Talks About 'Someone Like Me'
TTITLE4=Kasey Chambers Talks About 'Beautiful Mess'
TTITLE5=Kasey Chambers Talks About 'Devil on Your Back'
TTITLE6=Kasey Chambers Talks About 'Little Bird'
TTITLE7=Kasey Chambers Talks About 'Georgia Brown'
TTITLE8=Kasey Chambers Talks About 'Somewhere'
TTITLE9=Kasey Chambers Talks About 'This Story'
TTITLE10=Kasey Chambers Talks About 'Love Like a Hurricane'
TTITLE11=Kasey Chambers Talks About 'Down Here on Earth'
TTITLE12=Kasey Chambers Talks About 'Nullarbor, the Biggest Backyard'
TTITLE13=Kasey Chambers Talks About 'Bring Back My Heart'
TTITLE14=Kasey Chambers Talks About 'Invisible Girl'
TTITLE15=Kasey Chambers Talks About 'Train Wreck'
TTITLE16=Kasey Chambers Talks About 'The Stupid Things I Do'
EXTD=
EXTT0=
EXTT1=
EXTT2=
EXTT3=
EXTT4=
EXTT5=
EXTT6=
EXTT7=
EXTT8=
EXTT9=
EXTT10=
EXTT11=
EXTT12=
EXTT13=
EXTT14=
EXTT15=
EXTT16=
PLAYORDER=
